<mxfile host="65bd71144e">
    <diagram id="jXJJGXDf1ob74YZaKluY" name="Page-1">
        <mxGraphModel dx="128" dy="1963" grid="1" gridSize="10" guides="1" tooltips="1" connect="1" arrows="1" fold="1" page="1" pageScale="1" pageWidth="1169" pageHeight="827" math="0" shadow="0">
            <root>
                <mxCell id="0"/>
                <mxCell id="1" parent="0"/>
                <mxCell id="109" style="edgeStyle=none;html=1;exitX=0.5;exitY=0;exitDx=0;exitDy=0;exitPerimeter=0;strokeColor=#F21F07;fontColor=default;endArrow=block;endFill=0;" parent="1" edge="1">
                    <mxGeometry relative="1" as="geometry">
                        <mxPoint x="45" y="222" as="targetPoint"/>
                        <mxPoint x="45" y="342" as="sourcePoint"/>
                    </mxGeometry>
                </mxCell>
                <mxCell id="2" value="Actor" style="shape=umlActor;verticalLabelPosition=bottom;verticalAlign=top;html=1;outlineConnect=0;fillColor=#e3c800;fontColor=#000000;strokeColor=#F21F07;" parent="1" vertex="1">
                    <mxGeometry x="30" y="354" width="30" height="60" as="geometry"/>
                </mxCell>
                <mxCell id="6" value="Actor" style="shape=umlActor;verticalLabelPosition=bottom;verticalAlign=top;html=1;outlineConnect=0;fillColor=#e3c800;fontColor=#000000;strokeColor=#F21F07;" parent="1" vertex="1">
                    <mxGeometry x="30" y="120" width="30" height="60" as="geometry"/>
                </mxCell>
                <mxCell id="11" value="Visiteur" style="text;html=1;strokeColor=none;fillColor=none;align=center;verticalAlign=middle;whiteSpace=wrap;rounded=0;" parent="1" vertex="1">
                    <mxGeometry x="15" y="183" width="60" height="30" as="geometry"/>
                </mxCell>
                <mxCell id="12" value="Utilisateur" style="text;html=1;strokeColor=none;fillColor=none;align=center;verticalAlign=middle;whiteSpace=wrap;rounded=0;" parent="1" vertex="1">
                    <mxGeometry x="15" y="414" width="60" height="30" as="geometry"/>
                </mxCell>
                <mxCell id="17" value="" style="endArrow=classic;html=1;strokeColor=#F21F07;" parent="1" edge="1">
                    <mxGeometry width="50" height="50" relative="1" as="geometry">
                        <mxPoint x="80" y="380" as="sourcePoint"/>
                        <mxPoint x="220" y="420" as="targetPoint"/>
                        <Array as="points"/>
                    </mxGeometry>
                </mxCell>
                <mxCell id="18" value="S'authentifier" style="ellipse;whiteSpace=wrap;html=1;fillStyle=auto;strokeColor=#F21F07;fillColor=#e3c800;fontColor=#000000;" parent="1" vertex="1">
                    <mxGeometry x="960" y="359" width="130" height="50" as="geometry"/>
                </mxCell>
                <mxCell id="21" value="Ecrire un topic" style="ellipse;whiteSpace=wrap;html=1;fillStyle=auto;strokeColor=#F21F07;fillColor=#e3c800;fontColor=#000000;" parent="1" vertex="1">
                    <mxGeometry x="230" y="394" width="130" height="50" as="geometry"/>
                </mxCell>
                <mxCell id="39" value="" style="endArrow=classic;html=1;strokeColor=#F21F07;" parent="1" edge="1">
                    <mxGeometry width="50" height="50" relative="1" as="geometry">
                        <mxPoint x="80" y="160" as="sourcePoint"/>
                        <mxPoint x="220" y="150" as="targetPoint"/>
                    </mxGeometry>
                </mxCell>
                <mxCell id="40" value="" style="endArrow=classic;html=1;strokeColor=#F21F07;" parent="1" edge="1">
                    <mxGeometry width="50" height="50" relative="1" as="geometry">
                        <mxPoint x="80" y="150" as="sourcePoint"/>
                        <mxPoint x="220" y="100" as="targetPoint"/>
                    </mxGeometry>
                </mxCell>
                <mxCell id="41" value="Créer un compte utilisateur" style="ellipse;whiteSpace=wrap;html=1;fillStyle=auto;strokeColor=#F21F07;fillColor=#e3c800;fontColor=#000000;labelBackgroundColor=none;" parent="1" vertex="1">
                    <mxGeometry x="231" y="184" width="130" height="50" as="geometry"/>
                </mxCell>
                <mxCell id="50" value="Rechercher un topic" style="ellipse;whiteSpace=wrap;html=1;fillStyle=auto;strokeColor=#F21F07;fillColor=#E3C800;fontColor=#18141D;" parent="1" vertex="1">
                    <mxGeometry x="530" y="81" width="130" height="50" as="geometry"/>
                </mxCell>
                <mxCell id="52" value="Modifier un commentaire" style="ellipse;whiteSpace=wrap;html=1;fillStyle=auto;strokeColor=#F21F07;fillColor=#E3C800;fontColor=#18141D;" parent="1" vertex="1">
                    <mxGeometry x="920" y="700" width="130" height="50" as="geometry"/>
                </mxCell>
                <mxCell id="53" value="Supprimer un commentaire" style="ellipse;whiteSpace=wrap;html=1;fillStyle=auto;strokeColor=#F21F07;fillColor=#E3C800;fontColor=#18141D;" parent="1" vertex="1">
                    <mxGeometry x="920" y="760" width="130" height="50" as="geometry"/>
                </mxCell>
                <mxCell id="54" value="Consulter un topic" style="ellipse;whiteSpace=wrap;html=1;fillStyle=auto;strokeColor=#F21F07;fontColor=#18141D;fillColor=#E3C800;" parent="1" vertex="1">
                    <mxGeometry x="529" y="23" width="130" height="50" as="geometry"/>
                </mxCell>
                <mxCell id="55" value="Afficher liste commentaires" style="ellipse;whiteSpace=wrap;html=1;fillStyle=auto;strokeColor=#F21F07;fillColor=#E3C800;fontColor=#18141D;" parent="1" vertex="1">
                    <mxGeometry x="229" y="123" width="130" height="50" as="geometry"/>
                </mxCell>
                <mxCell id="56" value="Afficher liste topics" style="ellipse;whiteSpace=wrap;html=1;fillStyle=auto;strokeColor=#F21F07;labelBackgroundColor=none;fillColor=#E3C800;fontColor=#18141D;" parent="1" vertex="1">
                    <mxGeometry x="229" y="63" width="130" height="50" as="geometry"/>
                </mxCell>
                <mxCell id="58" value="Poster un commentaire" style="ellipse;whiteSpace=wrap;html=1;fillStyle=auto;strokeColor=#F21F07;fillColor=#E3C800;fontColor=#18141D;" parent="1" vertex="1">
                    <mxGeometry x="920" y="640" width="130" height="50" as="geometry"/>
                </mxCell>
                <mxCell id="72" value="" style="html=1;verticalAlign=bottom;labelBackgroundColor=none;endArrow=none;endFill=0;dashed=1;strokeColor=#F21F07;startArrow=classicThin;startFill=1;" parent="1" edge="1">
                    <mxGeometry width="160" relative="1" as="geometry">
                        <mxPoint x="370" y="90" as="sourcePoint"/>
                        <mxPoint x="520" y="100" as="targetPoint"/>
                    </mxGeometry>
                </mxCell>
                <mxCell id="188" value="extend" style="edgeLabel;html=1;align=center;verticalAlign=middle;resizable=0;points=[];" parent="72" vertex="1" connectable="0">
                    <mxGeometry x="-0.2604" y="-1" relative="1" as="geometry">
                        <mxPoint x="23" as="offset"/>
                    </mxGeometry>
                </mxCell>
                <mxCell id="76" value="Supprimer un topic" style="ellipse;whiteSpace=wrap;html=1;fillStyle=auto;strokeColor=#F21F07;fontColor=#18141D;fillColor=#E3C800;" parent="1" vertex="1">
                    <mxGeometry x="531" y="589" width="130" height="58" as="geometry"/>
                </mxCell>
                <mxCell id="77" value="Modifier un topic" style="ellipse;whiteSpace=wrap;html=1;fillStyle=auto;strokeColor=#F21F07;fontColor=#18141D;fillColor=#E3C800;" parent="1" vertex="1">
                    <mxGeometry x="532" y="534" width="130" height="50" as="geometry"/>
                </mxCell>
                <mxCell id="78" value="Poster un topic" style="ellipse;whiteSpace=wrap;html=1;fillStyle=auto;strokeColor=#F21F07;fontColor=#18141D;fillColor=#E3C800;" parent="1" vertex="1">
                    <mxGeometry x="531" y="477" width="130" height="50" as="geometry"/>
                </mxCell>
                <mxCell id="117" value="Admin&lt;br&gt;" style="shape=umlActor;verticalLabelPosition=bottom;verticalAlign=top;html=1;labelBackgroundColor=none;labelBorderColor=#FFFFFF;fillStyle=auto;strokeColor=#F21F07;fontColor=#FFFFFF;fillColor=#E3C800;" parent="1" vertex="1">
                    <mxGeometry x="30" y="722" width="30" height="60" as="geometry"/>
                </mxCell>
                <mxCell id="135" value="Supprimer un compte" style="ellipse;whiteSpace=wrap;html=1;fillStyle=auto;strokeColor=#F21F07;fontColor=#18141D;fillColor=#E3C800;" parent="1" vertex="1">
                    <mxGeometry x="230" y="771" width="130" height="50" as="geometry"/>
                </mxCell>
                <mxCell id="146" value="&lt;h1 style=&quot;font-size: 15px;&quot;&gt;Consultation du site Voyage au delà d'un continent&lt;/h1&gt;" style="text;html=1;strokeColor=none;fillColor=none;spacing=5;spacingTop=-20;whiteSpace=wrap;overflow=hidden;rounded=0;labelBackgroundColor=none;labelBorderColor=#FFFFFF;fillStyle=auto;fontColor=#FFFFFF;align=center;fontSize=15;" parent="1" vertex="1">
                    <mxGeometry x="40" y="-60" width="390" height="30" as="geometry"/>
                </mxCell>
                <mxCell id="148" value="" style="endArrow=classic;html=1;strokeColor=#F21F07;" parent="1" edge="1">
                    <mxGeometry width="50" height="50" relative="1" as="geometry">
                        <mxPoint x="80" y="170" as="sourcePoint"/>
                        <mxPoint x="220" y="210" as="targetPoint"/>
                    </mxGeometry>
                </mxCell>
                <mxCell id="153" style="edgeStyle=none;html=1;strokeColor=#F21F07;fontColor=default;endArrow=block;endFill=0;entryX=0.5;entryY=1;entryDx=0;entryDy=0;" parent="1" edge="1">
                    <mxGeometry relative="1" as="geometry">
                        <mxPoint x="45" y="452" as="targetPoint"/>
                        <mxPoint x="45" y="703" as="sourcePoint"/>
                    </mxGeometry>
                </mxCell>
                <mxCell id="154" value="" style="html=1;verticalAlign=bottom;labelBackgroundColor=none;endArrow=none;endFill=0;dashed=1;strokeColor=#F21F07;startArrow=classicThin;startFill=1;" parent="1" edge="1">
                    <mxGeometry width="160" relative="1" as="geometry">
                        <mxPoint x="360" y="330" as="sourcePoint"/>
                        <mxPoint x="520" y="250" as="targetPoint"/>
                    </mxGeometry>
                </mxCell>
                <mxCell id="155" value="extend" style="edgeLabel;html=1;align=center;verticalAlign=middle;resizable=0;points=[];" parent="154" vertex="1" connectable="0">
                    <mxGeometry x="-0.1707" y="-2" relative="1" as="geometry">
                        <mxPoint y="-10" as="offset"/>
                    </mxGeometry>
                </mxCell>
                <mxCell id="156" value="" style="html=1;verticalAlign=bottom;labelBackgroundColor=none;endArrow=none;endFill=0;dashed=1;strokeColor=#F21F07;startArrow=classicThin;startFill=1;" parent="1" edge="1">
                    <mxGeometry width="160" relative="1" as="geometry">
                        <mxPoint x="370" y="340" as="sourcePoint"/>
                        <mxPoint x="520" y="310" as="targetPoint"/>
                    </mxGeometry>
                </mxCell>
                <mxCell id="157" value="extend" style="edgeLabel;html=1;align=center;verticalAlign=middle;resizable=0;points=[];" parent="156" vertex="1" connectable="0">
                    <mxGeometry x="-0.1707" y="-2" relative="1" as="geometry">
                        <mxPoint y="-10" as="offset"/>
                    </mxGeometry>
                </mxCell>
                <mxCell id="158" value="" style="html=1;verticalAlign=bottom;labelBackgroundColor=none;endArrow=none;endFill=0;dashed=1;strokeColor=#F21F07;startArrow=classicThin;startFill=1;" parent="1" edge="1">
                    <mxGeometry width="160" relative="1" as="geometry">
                        <mxPoint x="390" y="420" as="sourcePoint"/>
                        <mxPoint x="520" y="440" as="targetPoint"/>
                    </mxGeometry>
                </mxCell>
                <mxCell id="170" value="extend" style="edgeLabel;html=1;align=center;verticalAlign=middle;resizable=0;points=[];" parent="158" vertex="1" connectable="0">
                    <mxGeometry x="-0.1216" y="-1" relative="1" as="geometry">
                        <mxPoint y="1" as="offset"/>
                    </mxGeometry>
                </mxCell>
                <mxCell id="164" value="" style="html=1;verticalAlign=bottom;labelBackgroundColor=none;endArrow=none;endFill=0;dashed=1;strokeColor=#F21F07;startArrow=classicThin;startFill=1;" parent="1" edge="1">
                    <mxGeometry width="160" relative="1" as="geometry">
                        <mxPoint x="660" y="790" as="sourcePoint"/>
                        <mxPoint x="910" y="780" as="targetPoint"/>
                    </mxGeometry>
                </mxCell>
                <mxCell id="165" value="extend" style="edgeLabel;html=1;align=center;verticalAlign=middle;resizable=0;points=[];" parent="164" vertex="1" connectable="0">
                    <mxGeometry x="-0.1707" y="-2" relative="1" as="geometry">
                        <mxPoint y="-10" as="offset"/>
                    </mxGeometry>
                </mxCell>
                <mxCell id="166" value="" style="html=1;verticalAlign=bottom;labelBackgroundColor=none;endArrow=none;endFill=0;dashed=1;strokeColor=#F21F07;startArrow=classicThin;startFill=1;" parent="1" edge="1">
                    <mxGeometry width="160" relative="1" as="geometry">
                        <mxPoint x="670" y="780" as="sourcePoint"/>
                        <mxPoint x="910" y="720" as="targetPoint"/>
                    </mxGeometry>
                </mxCell>
                <mxCell id="167" value="extend" style="edgeLabel;html=1;align=center;verticalAlign=middle;resizable=0;points=[];" parent="166" vertex="1" connectable="0">
                    <mxGeometry x="-0.1707" y="-2" relative="1" as="geometry">
                        <mxPoint y="-10" as="offset"/>
                    </mxGeometry>
                </mxCell>
                <mxCell id="168" value="" style="html=1;verticalAlign=bottom;labelBackgroundColor=none;endArrow=none;endFill=0;dashed=1;strokeColor=#F21F07;startArrow=classicThin;startFill=1;" parent="1" edge="1">
                    <mxGeometry width="160" relative="1" as="geometry">
                        <mxPoint x="670" y="770" as="sourcePoint"/>
                        <mxPoint x="910" y="660" as="targetPoint"/>
                    </mxGeometry>
                </mxCell>
                <mxCell id="169" value="extend" style="edgeLabel;html=1;align=center;verticalAlign=middle;resizable=0;points=[];" parent="168" vertex="1" connectable="0">
                    <mxGeometry x="-0.1707" y="-2" relative="1" as="geometry">
                        <mxPoint y="-10" as="offset"/>
                    </mxGeometry>
                </mxCell>
                <mxCell id="171" value="" style="endArrow=classic;html=1;strokeColor=#F21F07;" parent="1" edge="1">
                    <mxGeometry width="50" height="50" relative="1" as="geometry">
                        <mxPoint x="80" y="750" as="sourcePoint"/>
                        <mxPoint x="210" y="790" as="targetPoint"/>
                    </mxGeometry>
                </mxCell>
                <mxCell id="176" value="" style="html=1;verticalAlign=bottom;labelBackgroundColor=none;endArrow=none;endFill=0;dashed=1;strokeColor=#F21F07;startArrow=classicThin;startFill=1;" parent="1" edge="1">
                    <mxGeometry width="160" relative="1" as="geometry">
                        <mxPoint x="950" y="400" as="sourcePoint"/>
                        <mxPoint x="380" y="400" as="targetPoint"/>
                    </mxGeometry>
                </mxCell>
                <mxCell id="177" value="include" style="edgeLabel;html=1;align=center;verticalAlign=middle;resizable=0;points=[];" parent="176" vertex="1" connectable="0">
                    <mxGeometry x="-0.1707" y="-2" relative="1" as="geometry">
                        <mxPoint x="-1" y="-9" as="offset"/>
                    </mxGeometry>
                </mxCell>
                <mxCell id="178" value="Liker un topic" style="ellipse;whiteSpace=wrap;html=1;fillStyle=auto;strokeColor=#F21F07;fillColor=#E3C800;fontColor=#18141D;" parent="1" vertex="1">
                    <mxGeometry x="531" y="420" width="130" height="50" as="geometry"/>
                </mxCell>
                <mxCell id="181" value="Ecrire un commentaire" style="ellipse;whiteSpace=wrap;html=1;fillStyle=auto;strokeColor=#F21F07;fillColor=#e3c800;fontColor=#000000;" parent="1" vertex="1">
                    <mxGeometry x="530" y="760" width="130" height="50" as="geometry"/>
                </mxCell>
                <mxCell id="183" value="" style="endArrow=classic;html=1;strokeColor=#F21F07;" parent="1" edge="1">
                    <mxGeometry width="50" height="50" relative="1" as="geometry">
                        <mxPoint x="80" y="410" as="sourcePoint"/>
                        <mxPoint x="520" y="780" as="targetPoint"/>
                    </mxGeometry>
                </mxCell>
                <mxCell id="184" value="" style="html=1;verticalAlign=bottom;labelBackgroundColor=none;endArrow=none;endFill=0;dashed=1;strokeColor=#F21F07;startArrow=classicThin;startFill=1;entryX=0.692;entryY=0;entryDx=0;entryDy=0;entryPerimeter=0;" parent="1" target="181" edge="1">
                    <mxGeometry width="160" relative="1" as="geometry">
                        <mxPoint x="950" y="430" as="sourcePoint"/>
                        <mxPoint x="650" y="750" as="targetPoint"/>
                    </mxGeometry>
                </mxCell>
                <mxCell id="185" value="include" style="edgeLabel;html=1;align=center;verticalAlign=middle;resizable=0;points=[];" parent="184" vertex="1" connectable="0">
                    <mxGeometry x="-0.1707" y="-2" relative="1" as="geometry">
                        <mxPoint x="2" y="6" as="offset"/>
                    </mxGeometry>
                </mxCell>
                <mxCell id="186" value="" style="html=1;verticalAlign=bottom;labelBackgroundColor=none;endArrow=none;endFill=0;dashed=1;strokeColor=#F21F07;startArrow=classicThin;startFill=1;" parent="1" edge="1">
                    <mxGeometry width="160" relative="1" as="geometry">
                        <mxPoint x="370" y="80" as="sourcePoint"/>
                        <mxPoint x="520" y="50" as="targetPoint"/>
                    </mxGeometry>
                </mxCell>
                <mxCell id="187" value="extend" style="edgeLabel;html=1;align=center;verticalAlign=middle;resizable=0;points=[];" parent="186" vertex="1" connectable="0">
                    <mxGeometry x="-0.1708" y="-2" relative="1" as="geometry">
                        <mxPoint x="14" y="-4" as="offset"/>
                    </mxGeometry>
                </mxCell>
                <mxCell id="190" value="modifier son compte" style="ellipse;whiteSpace=wrap;html=1;fillStyle=auto;strokeColor=#F21F07;fillColor=#E3C800;fontColor=#18141D;" parent="1" vertex="1">
                    <mxGeometry x="530" y="220" width="130" height="50" as="geometry"/>
                </mxCell>
                <mxCell id="191" value="supprimer son compte" style="ellipse;whiteSpace=wrap;html=1;fillStyle=auto;strokeColor=#F21F07;fillColor=#E3C800;fontColor=#18141D;" parent="1" vertex="1">
                    <mxGeometry x="530" y="280" width="130" height="50" as="geometry"/>
                </mxCell>
                <mxCell id="194" value="" style="html=1;verticalAlign=bottom;labelBackgroundColor=none;endArrow=none;endFill=0;dashed=1;strokeColor=#F21F07;startArrow=classicThin;startFill=1;" parent="1" edge="1">
                    <mxGeometry width="160" relative="1" as="geometry">
                        <mxPoint x="370" y="450" as="sourcePoint"/>
                        <mxPoint x="520" y="610" as="targetPoint"/>
                    </mxGeometry>
                </mxCell>
                <mxCell id="195" value="extend" style="edgeLabel;html=1;align=center;verticalAlign=middle;resizable=0;points=[];" parent="194" vertex="1" connectable="0">
                    <mxGeometry x="-0.1216" y="-1" relative="1" as="geometry">
                        <mxPoint y="1" as="offset"/>
                    </mxGeometry>
                </mxCell>
                <mxCell id="196" value="" style="html=1;verticalAlign=bottom;labelBackgroundColor=none;endArrow=none;endFill=0;dashed=1;strokeColor=#F21F07;startArrow=classicThin;startFill=1;" parent="1" edge="1">
                    <mxGeometry width="160" relative="1" as="geometry">
                        <mxPoint x="380" y="440" as="sourcePoint"/>
                        <mxPoint x="520" y="550" as="targetPoint"/>
                    </mxGeometry>
                </mxCell>
                <mxCell id="197" value="extend" style="edgeLabel;html=1;align=center;verticalAlign=middle;resizable=0;points=[];" parent="196" vertex="1" connectable="0">
                    <mxGeometry x="-0.1216" y="-1" relative="1" as="geometry">
                        <mxPoint y="1" as="offset"/>
                    </mxGeometry>
                </mxCell>
                <mxCell id="198" value="" style="html=1;verticalAlign=bottom;labelBackgroundColor=none;endArrow=none;endFill=0;dashed=1;strokeColor=#F21F07;startArrow=classicThin;startFill=1;" parent="1" edge="1">
                    <mxGeometry width="160" relative="1" as="geometry">
                        <mxPoint x="380" y="430" as="sourcePoint"/>
                        <mxPoint x="520" y="490" as="targetPoint"/>
                    </mxGeometry>
                </mxCell>
                <mxCell id="199" value="extend" style="edgeLabel;html=1;align=center;verticalAlign=middle;resizable=0;points=[];" parent="198" vertex="1" connectable="0">
                    <mxGeometry x="-0.1216" y="-1" relative="1" as="geometry">
                        <mxPoint y="1" as="offset"/>
                    </mxGeometry>
                </mxCell>
                <mxCell id="202" value="consulter son compte" style="ellipse;whiteSpace=wrap;html=1;fillStyle=auto;strokeColor=#F21F07;fillColor=#E3C800;fontColor=#18141D;" parent="1" vertex="1">
                    <mxGeometry x="231" y="330" width="130" height="50" as="geometry"/>
                </mxCell>
                <mxCell id="203" value="" style="endArrow=classic;html=1;strokeColor=#F21F07;" edge="1" parent="1">
                    <mxGeometry width="50" height="50" relative="1" as="geometry">
                        <mxPoint x="80" y="370" as="sourcePoint"/>
                        <mxPoint x="220" y="360" as="targetPoint"/>
                        <Array as="points"/>
                    </mxGeometry>
                </mxCell>
                <mxCell id="204" value="" style="html=1;verticalAlign=bottom;labelBackgroundColor=none;endArrow=none;endFill=0;dashed=1;strokeColor=#F21F07;startArrow=classicThin;startFill=1;entryX=1;entryY=0.5;entryDx=0;entryDy=0;" edge="1" parent="1" target="202">
                    <mxGeometry width="160" relative="1" as="geometry">
                        <mxPoint x="950" y="355" as="sourcePoint"/>
                        <mxPoint x="380" y="360" as="targetPoint"/>
                    </mxGeometry>
                </mxCell>
                <mxCell id="205" value="include" style="edgeLabel;html=1;align=center;verticalAlign=middle;resizable=0;points=[];" vertex="1" connectable="0" parent="204">
                    <mxGeometry x="-0.1707" y="-2" relative="1" as="geometry">
                        <mxPoint x="-1" y="-9" as="offset"/>
                    </mxGeometry>
                </mxCell>
                <mxCell id="206" value="" style="whiteSpace=wrap;html=1;fillColor=none;strokeColor=#FFFFFF;" vertex="1" parent="1">
                    <mxGeometry x="120" width="980" height="840" as="geometry"/>
                </mxCell>
            </root>
        </mxGraphModel>
    </diagram>
</mxfile>